<svg width="64" height="64" viewBox="0 0 64 64" fill="none" xmlns="http://www.w3.org/2000/svg">
<path d="M31.8927 64C25.3927 63.9833 19.4922 63.3197 14.8693 62.3429C12.5583 61.8547 10.5594 61.2866 8.9612 60.6785C7.37682 60.0757 6.14427 59.4181 5.40052 58.7302C4.46042 57.8885 3.67604 56.4248 3.01927 54.6149C2.35573 52.7871 1.80078 50.5425 1.35495 48.0773C0.463021 43.1459 0 37.2835 0 32.0033C0 25.7931 0.567969 19.8327 1.51589 15.0791C1.98958 12.7028 2.56042 10.6176 3.20755 8.94921C3.8487 7.29707 4.58516 5.99845 5.42031 5.24981C6.15964 4.56657 7.3888 3.91276 8.96979 3.31286C10.5651 2.70765 12.562 2.1415 14.8711 1.65449C19.4904 0.680343 25.3893 0.0167459 31.8872 0H32.1073C38.6073 0.0167459 44.5081 0.680343 49.1307 1.65706C51.4417 2.14531 53.4406 2.71336 55.0388 3.32153C56.6232 3.92432 57.8557 4.58187 58.5997 5.26984C59.4302 6.01388 60.163 7.30922 60.8008 8.958C61.4453 10.6236 62.0141 12.7069 62.4867 15.0817C63.432 19.8327 64 25.7931 64 32.0033C64 38.2135 63.4336 44.1622 62.4893 48.9075C62.0172 51.2795 61.4484 53.3612 60.8036 55.0288C60.1651 56.6809 59.4318 57.9805 58.6013 58.7352C57.856 59.4305 56.6227 60.0934 55.0378 60.6997C53.4396 61.3113 51.4414 61.8809 49.1315 62.3688C44.5107 63.3448 38.613 64 32.1128 64H31.8927Z" fill="#0357EE"/>
<path d="M45.6269 33.1658L44.5001 19.7333H37.6932C37.6932 19.7333 32.511 30.0759 32.0524 31.4827H31.9804L26.5165 19.7333H19.6768L18.55 31.3799L17.6 43.2H21.7602C23.5552 43.2 24.2628 42.442 24.4069 40.5919C24.4069 40.5919 25.1145 29.7675 25.0031 28.1872H25.0752L25.2848 28.9067C25.5665 29.8703 29.445 39.1144 29.445 39.1144H34.5551C34.5551 39.1144 38.4335 30.0116 38.9248 28.1872H38.9969L39.5931 40.5919C39.7372 42.4484 40.4775 43.2 42.2399 43.2H46.4L45.6269 33.1658Z" fill="white"/>
</svg>
