<svg width="120" height="120" viewBox="0 0 120 120" fill="none" xmlns="http://www.w3.org/2000/svg">
<path d="M59.7988 120C47.6113 119.969 36.5479 118.724 27.8799 116.893C23.5469 115.978 19.7988 114.912 16.8022 113.772C13.8315 112.642 11.5205 111.409 10.126 110.119C8.36328 108.541 6.89258 105.797 5.66113 102.403C4.41699 98.9758 3.37646 94.7671 2.54053 90.145C0.868164 80.8986 0 69.9066 0 60.0062C0 48.362 1.06494 37.1862 2.84229 28.2732C3.73047 23.8177 4.80078 19.908 6.01416 16.7798C7.21631 13.682 8.59717 11.2471 10.1631 9.84339C11.5493 8.56233 13.854 7.33643 16.8184 6.21162C19.8096 5.07684 23.5537 4.01532 27.8833 3.10218C36.5444 1.27564 47.605 0.0313986 59.7886 0H60.2012C72.3887 0.0313986 83.4526 1.27564 92.1201 3.10698C96.4531 4.02246 100.201 5.08755 103.198 6.22787C106.168 7.3581 108.479 8.59102 109.875 9.88094C111.432 11.276 112.806 13.7048 114.001 16.7963C115.21 19.9192 116.276 23.8254 117.163 28.2783C118.935 37.1864 120 48.362 120 60.0062C120 71.6503 118.938 82.8042 117.167 91.7015C116.282 96.149 115.216 100.052 114.007 103.179C112.81 106.277 111.435 108.714 109.877 110.129C108.48 111.432 106.167 112.675 103.196 113.812C100.199 114.959 96.4526 116.027 92.1216 116.942C83.4575 118.772 72.3994 120 60.2114 120H59.7988Z" fill="#0357EE"/>
<path d="M85.5505 62.1859L83.4377 37H70.6747C70.6747 37 60.9581 56.3923 60.0983 59.0301H59.9631L49.7184 37H36.894L34.7812 58.8374L33 81H40.8003C44.1661 81 45.4927 79.5787 45.763 76.1098C45.763 76.1098 47.0896 55.8141 46.8808 52.8511H47.0159L47.409 54.2001C47.9372 56.0068 55.2093 73.3394 55.2093 73.3394H64.7907C64.7907 73.3394 72.0628 56.2718 72.9841 52.8511H73.1192L74.237 76.1098C74.5073 79.5907 75.8954 81 79.1997 81H87L85.5505 62.1859Z" fill="white"/>
</svg>
